<?xml version="1.0" standalone="no"?><!DOCTYPE svg PUBLIC "-//W3C//DTD SVG 20010904//EN"
    "http://www.w3.org/TR/2001/REC-SVG-20010904/DTD/svg10.dtd">
<svg version="1.0" xmlns="http://www.w3.org/2000/svg" width="900.000000pt" height="903.000000pt"
    viewBox="0 0 900.000000 903.000000" preserveAspectRatio="xMidYMid meet">
    <g transform="translate(0.000000,903.000000) scale(0.100000,-0.100000)" fill="#0040ff"
        stroke="none">
        <path d="M1635 8968 c-133 -14 -288 -46 -387 -79 -113 -37 -314 -133 -394
-186 -114 -76 -135 -92 -215 -159 -279 -236 -500 -604 -572 -954 -50 -245 -48
-66 -45 -3125 3 -2635 5 -2846 21 -2925 38 -188 72 -317 88 -334 5 -6 9 -16 9
-24 0 -23 115 -252 162 -322 24 -36 59 -87 78 -115 18 -27 95 -111 169 -185
103 -102 166 -155 259 -217 115 -77 296 -173 325 -173 7 0 17 -4 22 -8 9 -8
81 -34 165 -60 19 -6 87 -21 150 -34 l115 -23 2910 0 2910 0 120 27 c155 34
202 46 223 57 9 5 37 17 62 27 200 79 336 157 492 283 297 241 526 609 607
976 48 221 46 92 46 3090 0 2275 -3 2837 -13 2910 -16 112 -68 334 -89 383 -8
20 -21 51 -28 67 -141 338 -356 604 -649 803 -117 79 -358 202 -398 202 -8 0
-18 4 -23 9 -13 11 -103 38 -195 57 -217 44 -188 44 -3095 43 -1521 -1 -2786
-6 -2830 -11z m1704 -2692 c59 -31 127 -109 140 -160 17 -68 16 -3111 -1
-3167 -16 -52 -78 -123 -132 -152 -38 -21 -54 -22 -236 -22 -222 0 -242 5
-314 85 -66 73 -68 85 -71 375 -2 143 -3 265 -4 271 -1 8 -49 13 -148 16 -121
4 -156 8 -193 25 -55 25 -103 72 -133 132 -21 44 -22 59 -25 315 -1 147 -5
272 -8 277 -3 5 -14 9 -25 9 -35 0 -116 48 -151 89 -32 38 -68 125 -68 167 0
34 37 127 64 161 30 38 104 83 149 92 l32 7 6 269 c3 149 10 281 14 295 21 63
94 146 136 155 16 4 31 11 34 16 4 5 73 9 155 9 108 0 151 3 157 13 4 6 8 131
9 277 2 295 4 306 70 380 73 80 109 90 334 87 147 -3 181 -6 209 -21z m2767
-4 c52 -26 116 -98 134 -149 10 -27 14 -110 17 -301 1 -145 5 -268 8 -273 4
-5 70 -9 149 -9 124 0 148 -3 187 -21 54 -26 83 -52 118 -104 l26 -40 3 -280
c2 -178 7 -284 14 -292 6 -7 19 -13 30 -13 32 0 98 -39 142 -84 57 -59 82
-148 62 -224 -29 -110 -104 -181 -218 -206 l-27 -6 -3 -288 -3 -287 -26 -40
c-70 -106 -118 -126 -311 -133 l-146 -4 -5 -267 c-4 -297 -8 -316 -70 -387
-74 -84 -93 -89 -322 -89 l-200 0 -57 38 c-62 42 -89 80 -113 159 -13 46 -15
229 -15 1555 0 1693 -4 1591 72 1678 75 85 112 95 343 91 152 -2 174 -4 211
-24z m-862 -1517 c8 -41 7 -419 -1 -453 l-5 -22 -752 2 -751 3 -3 230 c-1 127
0 240 3 253 l5 22 749 0 749 0 6 -35z" />
    </g>
</svg>
